<svg xmlns="http://www.w3.org/2000/svg" xmlns:xlink="http://www.w3.org/1999/xlink" width="131" height="45" viewBox="0 0 34.66 11.906" xmlns:v="https://vecta.io/nano"><defs><clipPath ><path d="M43.316 811.68h215.28V616.92H43.316z"/></clipPath><path id="B" d="M387.79 279.8h-.625v-.08h.217v-1.245h-.434v.174h-.104v-.344h.104v.06h1.06v-.06h.104v.344h-.104v-.174h-.435v1.245h.217z"/><path id="C" d="M390.936 279.8h-.988v-.08h.163v-1.274h-.163v-.08h.867v-.06h.1v.346h-.098v-.185h-.515v.556h.41v-.163l.1-.002v.428l-.1.002v-.168h-.41v.582h.534v-.19h.1z"/><path id="D" d="M395.26 279.8h-.517v-.08h.163v-1.274h-.163v-.08h.517v.08h-.163v1.274h.163z"/><path id="E" d="M391.688 284.38h-1.362v-.212h.43v-1.528l-1.185-1.83h-.332v-.212h1.414v.212h-.52l.985 1.502.9-1.502h-.52v-.212h1.145v.212h-.298l-1.1 1.794v1.563h.435z"/><path id="F" d="M380.786 282.657h.192v.14h-.192z"/><path id="G" d="M377.906 282.657h-.192v.14h.192z"/></defs><g transform="matrix(1.041892 0 0 1.041892 -389.66536 -287.460709)"><g fill="#005f99"><use xlink:href="#B"/><path d="M389.766 279.8h-.517v-.08h.163v-.598h-.815v.598h.163v.08h-.517v-.08h.163v-1.274h-.163v-.08h.517v.08h-.163v.578h.815v-.578h-.163v-.08h.517v.08h-.165v1.274h.165z"/><use xlink:href="#C"/><path d="M393.08 278.437h-.163v.828c0 .232-.083.382-.264.48a.65.65 0 0 1-.302.074c-.315 0-.547-.2-.547-.494v-.888h-.163v-.08h.517v.08h-.163v.82c0 .262.154.435.395.435.247 0 .415-.176.415-.437v-.82h-.163v-.08h.437zm1.34 1.377h-.067l-.834-1.147v1.042h.165v.08h-.44v-.08h.165v-1.2l-.06-.083h-.15v-.08h.315l.795 1.1v-1h-.165v-.08h.436v.08h-.163z"/><use xlink:href="#D"/><path d="M396.137 279.827h-.074l-.547-1.4h-.128v-.08h.54v.08h-.204l.422 1.067.417-1.067h-.143v-.08h.372v.08h-.11z"/><use xlink:href="#C" x="6.971"/><path d="M398.47 279.047h.208c.165 0 .28-.12.28-.3 0-.187-.102-.29-.285-.29h-.204zm.9.743h-.185c-.128 0-.152-.013-.224-.128l-.324-.515h-.17v.563h.163v.08h-.516v-.08h.163v-1.273h-.163v-.08h.604c.21 0 .33.06.395.193.028.06.043.124.043.194 0 .21-.117.345-.326.375l.313.483c.052.08.087.106.14.106h.085z"/><path d="M399.648 279.81h-.102v-.39h.102v.172c.133.09.19.11.287.11.174 0 .29-.09.29-.228 0-.124-.085-.215-.32-.337-.274-.143-.367-.252-.367-.43 0-.215.182-.376.428-.376.11 0 .19.02.258.06v-.078h.1v.372h-.1v-.155c-.1-.074-.165-.096-.252-.096-.148 0-.243.09-.243.224 0 .11.063.174.334.33s.35.252.35.43c0 .226-.186.4-.432.4-.137 0-.226-.028-.334-.098z"/><use xlink:href="#D" x="5.872"/><use xlink:href="#B" x="14.43"/><path d="M403.592 279.8h-.517v-.08h.163v-.58l-.45-.693h-.126v-.08h.536v.08H403l.374.57.345-.57h-.198v-.08h.434v.08h-.113l-.417.68v.593h.165zm1.14-.727c0 .367.204.632.486.632s.48-.267.48-.632-.2-.63-.477-.63c-.285 0-.5.26-.5.63m-.215.002c0-.4.318-.745.702-.745.378 0 .695.34.695.743s-.317.745-.695.745-.702-.34-.702-.743"/><path d="M406.565 279.8h-.517v-.08h.163v-1.274h-.163v-.08h.867v-.06h.1v.346h-.098v-.185h-.514v.556h.4v-.163l.1-.002v.428l-.1.002v-.168h-.4v.6h.163zm-19.45 4.63h-.27v-1.03h.27v.452c.35.235.504.292.756.292.458 0 .767-.24.767-.6 0-.326-.223-.567-.84-.887-.72-.378-.968-.664-.968-1.136 0-.567.48-1 1.128-1 .286 0 .498.052.682.16v-.206h.263v.98h-.263v-.406c-.292-.194-.435-.252-.664-.252-.4 0-.64.235-.64.6 0 .292.166.46.88.873s.922.664.922 1.133c0 .595-.492 1.053-1.14 1.053a1.47 1.47 0 0 1-.882-.257z"/><use xlink:href="#E"/><path d="M393.868 284.092h.687c.784 0 1.38-.693 1.373-1.603 0-.884-.607-1.6-1.362-1.6h-.698zm-.933.286v-.212h.43V280.8h-.43v-.212h1.7c1.03 0 1.872.847 1.872 1.886 0 1.06-.824 1.895-1.877 1.895zm6.863.064h-.177l-2.2-3.025v2.75h.436v.212H396.7v-.212h.435v-3.14l-.154-.218h-.395v-.2h.83l2.095 2.876V280.8h-.435v-.2h1.15v.2h-.43zm3.422-.062h-2.605v-.212h.43V280.8h-.43v-.212h2.284v-.16h.263v.9h-.257v-.486h-1.357v1.468h1.082v-.43l.264-.005v1.13l-.264.005v-.44h-1.082v1.534h1.4v-.503h.263z"/><use xlink:href="#E" x="14.366"/></g><path d="M384.696 277.532v2.655c0 3.218-2.192 6.524-5.35 7.143-3.046-.578-5.348-3.925-5.348-7.143v-3.57s2.668-.714 5.35-.714c3.114 0 5.35.714 5.35.714z" fill="#febf2c"/><path d="M379.347 286.492c2.565-.003 4.554-2.382 4.554-5.002v-4.5l-.067-.02s-2.31-.717-4.488-.717-4.483.716-4.488.717l-.067.02v4.5c.001 2.62 2 5 4.555 5.002" fill="#fff"/><path d="M380.382 286.162v-1.774h2.025c.12 0 .224.058.29.15.478-.638.8-1.404.947-2.222h-3.26v-1.706l-1.036-.028-1.034.028v1.706h-3.262a5.12 5.12 0 0 0 .948 2.224c.064-.09.17-.15.3-.15h2.024v1.774a3.87 3.87 0 0 0 1.034.141v.015h.002v-.015a3.87 3.87 0 0 0 1.035-.141" fill="#005f99"/><g fill="#febf2c"><path d="M382.683 283.958l-.442-.2-.157.458-.164-.46-.435.212.2-.442-.458-.157.46-.165-.212-.436.442.2.157-.457.164.46.435-.212-.2.443.458.158-.46.164zm-6.675 0l.442-.2.157.458.164-.46.435.212-.2-.442.457-.157-.46-.165.212-.436-.44.2-.157-.457-.164.46-.435-.212.2.443-.458.158.46.164zm3.937 1.738l-.44-.2-.157.46-.164-.462-.435.213.2-.442-.458-.158.46-.164-.212-.435.44.2.158-.458.164.46.434-.212-.2.442.458.157-.46.165zm.001-3.356l-.44-.2-.158.458-.164-.46-.434.212.2-.442-.458-.157.46-.164-.212-.435.44.2.157-.458.164.46.435-.212-.2.442.458.158-.46.164z"/><use xlink:href="#F"/><use xlink:href="#F" y="0.376"/><use xlink:href="#F" y="0.753"/><use xlink:href="#F" y="1.128"/></g><path d="M380.493 282.98h-.843v-.128h.843zm0 .35h-.843v-.128h.843zm0 .35h-.843v-.128h.843zm-.663-1.108c-.016-.002-.036 0-.052 0a.34.34 0 0 0-.346.342v1.136c.064-.075.16-.122.266-.122h.986v-1.356z" fill="#fff"/><g fill="#febf2c"><use xlink:href="#G"/><use xlink:href="#G" y="0.376"/><use xlink:href="#G" y="0.753"/><use xlink:href="#G" y="1.128"/></g><path d="M378.198 282.85h.844v.128h-.844zm0 .35h.844v.128h-.844zm0 .35h.844v.128h-.844zm-.2-.98v1.356h.986c.107 0 .202.047.266.122v-1.136a.34.34 0 0 0-.345-.342c-.017 0-.036-.002-.052 0z" fill="#fff"/><path d="M379.346 280.392c1.9 0 3.883.303 4.366.38v-3.652l-.323-.1-1.022-.244c-.84-.177-1.952-.354-3.02-.354-1.603-.001-3.298.4-4.043.598l-.323.1v3.652c.482-.078 2.476-.38 4.366-.38" fill="#e92843"/><path d="M378.776 277.4a.49.49 0 0 1 .108.138c.002.006.014.012.02.006.023-.02.038-.047.038-.08 0-.058-.047-.103-.103-.103a.1.1 0 0 0-.062.02m-.746.91c0-.047-.085-.247-.118-.302-.07-.12.034-.47.198-.513.035-.008.054-.06.026-.088-.07-.068-.148-.154-.253-.154-.128 0-.232.104-.232.233 0 .147.114.17.105.21-.046.137-.046.285.015.39.042.073.075.19.1.272.016.086.067.16.14.2.036.02.02.05.034.08.007.014.02.024.028.032.016.012.004.015-.01.013-.108-.014-.276-.06-.345-.205-.036-.078-.154.197-.224.066-.074-.14-.11-.245-.14-.385-.018-.078-.067.055-.086.008a.77.77 0 0 1-.058-.279c0-.344.252-.633.593-.712.066-.016-.077-.125.017-.12.06.004.26.004.41.078.03.012.046-.043.103-.08.005-.002.018-.008.03 0 .06.037.08.1.11.078.15-.072.348-.072.407-.076.096-.006-.05.104.017.12.34.08.593.368.593.712a.77.77 0 0 1-.059.279c-.02.047-.067-.086-.085-.008a1.46 1.46 0 0 1-.141.385c-.07.13-.187-.144-.224-.066-.066.138-.22.186-.328.202-.013.002-.024 0-.01-.014.006-.005.032-.03.04-.08 0-.005-.002-.013.01-.018a.29.29 0 0 0 .16-.206c.026-.084.06-.205.102-.28.092-.164-.02-.363.01-.408.063-.04.105-.113.105-.194 0-.13-.104-.233-.232-.233-.07 0-.132.03-.174.08l-.007.006-.06.07c-.02.027-.016.076.02.086.16.04.262.4.197.515-.028.052-.116.244-.116.3a.13.13 0 0 1-.13.131c-.055 0-.1-.034-.12-.085.047-.033.144-.09.144-.15l-.02-.195c.08-.01.115-.053.126-.128l.02-.015c.026-.024.044-.1-.013-.08-.08.015-.17.012-.26.036-.012.004-.02.014-.023.025a3.61 3.61 0 0 0 .06.306c-.042.007-.106.004-.122.004a2.7 2.7 0 0 0-.115.006c.004-.065.056-.3.056-.3.002-.01 0-.02-.006-.028-.017-.022-.247-.042-.278-.048-.013-.002-.026.002-.034.014-.023.032.017.068.042.084.01.073.048.115.125.125.001.017-.02.198-.02.2 0 .062.095.115.143.143-.016.057-.06.1-.113.1a.13.13 0 0 1-.13-.131m-.074-.9c-.02-.018-.044-.03-.072-.03-.058 0-.103.046-.103.103 0 .033.015.062.038.08.008.006.02.002.022-.001.03-.05.07-.096.115-.132.004-.004.008-.017.001-.023m.584 1.182c-.025.065-.117.044-.167.084-.005.005-.02.005-.024.001-.05-.042-.14-.022-.17-.093-.002-.005-.002-.018.01-.02a.26.26 0 0 0 .165-.085c.004-.005.014-.008.024.002.038.043.09.073.15.083.007.002.018.007.01.027m2.146-1.035s.2-.007.33-.122c0 0 .14-.048.22.026.01.008.01.03-.01.032a.25.25 0 0 0-.095.04c-.07.048-.356.165-.445.024m-3.804.884c-.068-.06.08-.4-.247-.483-.052-.003.022.06.004.076-.095.08-.07.11-.075.158-.002.023-.027.02-.04.017-.07-.047-.243-.14-.4.008-.03.028.06.033.058.05-.02.11.05.17.103.2.018.008.018.03.007.043-.017.018-.06.046-.07.092-.007.03-.117.02-.083.055.168.178.34.075.41.022.047-.048.25.007.217.1-.04.13-.03.194.004.172.052-.033.08-.056.152-.056.014 0 .053.008.037.04-.025.06-.05.115-.027.2.01.036.035.028.048.014.08-.112.256-.1.34-.055.122.08.47.2.926-.246.014-.013.014-.063-.026-.048-.125.05-.265.06-.495-.057-.02-.01-.108-.04-.132-.046-.285-.062-.587-.15-.713-.26m5.728.397c.244.001.004.202-.008.26-.01.043.03.08.07.103.03.016.03.034.008.054s-.056.038-.14.04c-.036.001-.035.023-.032.038.005.038.047.067.105.073.032.01.037.03.01.06-.048.05-.114.05-.223.047-.104-.004-.187.122-.126.175.04.035.124.113.052.326-.023.064-.062-.06-.095-.04-.085.05-.16-.013-.2-.06-.017-.02-.032-.02-.043 0-.035.06-.125.166-.308.067-.04-.02-.12.052-.126.027a.25.25 0 0 1 .105-.271c.007-.005.03-.037-.01-.036-.062-.003-.137-.023-.145-.1-.001-.016-.08-.012-.075-.034.02-.104.248-.18.406-.075.133.09.302-.213.18-.355-.087-.102-.598.183-.772-.187-.07-.15.018-.277-.054-.287s-.392-.08-.75.207a1.24 1.24 0 0 1-1.41.113c-.024-.007-.048.012-.037.036.025.062.014.12-.016.165-.062.095-.28.192-.318.203-.254.075-.228.27-.2.356.008.026-.002.042-.03.037-.078-.014-.234-.062-.296-.214-.007-.018-.024-.018-.046-.003-.094.067-.06.165-.038.208.008.018.004.034-.02.037-.086.01-.148-.09-.223-.084-.05.005-.106.042-.137.064-.015.01-.017.034-.008.062.095.282-.06.29-.07.286s-.005-.053-.05-.06c-.153.008-.196-.09-.205-.165-.003-.024-.012-.032-.028-.02-.06.04-.2.12-.3.003-.013-.017-.055.001-.078.01s-.02-.023-.02-.032c.01-.16.12-.232.18-.26.022-.01.025-.022.007-.035-.048-.036-.133-.114-.106-.198.004-.016-.072-.046-.053-.06.175-.127.4.084.43.107s.2.03.597-.2c.26-.145.394-.266.468-.357.01-.01.028-.03.054-.03.164-.006.326-.03.453-.142.02-.022.043-.01.052-.002.233.162.353-.196.4-.36.006-.033.013-.06.048-.063l2.48.035s.214.017.203-.116c-.017-.214-.903-.208-1.564-.118-.24.034-.59.053-.795-.028a.37.37 0 0 1-.193-.155c-.04-.087-.03-.14-.023-.194.01-.04.03-.08.058-.127.17-.262.562-.282.683-.282.024 0 .038-.01.04-.026.012-.06.058-.2.222-.2a.35.35 0 0 0 .123-.034c.02-.008.032-.004.028.014s-.015.05-.04.07c-.115.1-.098.144-.085.157.008.007.02.003.027-.005.35-.304.552-.103.615-.037.01.012.013.03-.007.035-.237.053-.33.265-.814.23-.06-.004-.455-.024-.58.156-.072.104-.022.202.192.25.162.036.542-.02.72-.034s.938-.1 1.338.006c.17.048.414.184.365.44-.032.162-.187.225-.187.225s-.44.31.348.313m-1.335.47a.48.48 0 0 1-.344.106c-.073-.003-.11.018-.127.04-.01.015-.018.033-.02.037-.01.036.003.074.023.105s.01.043-.018.05-.066.008-.14-.028c-.033-.016-.042.005-.046.02-.012.036.01.08.06.113.025.022.02.043-.018.057-.066.023-.124-.007-.22-.06-.056-.03-.1-.036-.138.01-.022.024-.02.048-.007.06.038.037.06.11-.034.228-.03.038-.064-.068-.092-.056-.128.06-.232-.018-.27-.072-.008-.01-.026-.014-.048 0-.064.043-.2.113-.253-.01-.008-.018-.083.028-.082-.008.003-.203.18-.24.255-.248.023-.002.028-.014.016-.032-.03-.044-.066-.097-.046-.158.013-.045-.102-.055-.055-.08.233-.116.363.106.403.13.068.04.372-.06.41-.225.008-.032-.07-.047-.15-.066-.014-.004-.022-.022.004-.042.184-.137.332-.315.665-.35.04-.004.056.03.058.046.006.05.02.102.042.15.048.103.106.166.165.213.028.022.025.054.01.068" fill="#ffdfa1" fill-rule="evenodd"/><path d="M379.346 280.392c-1.9 0-3.884.303-4.366.38v-3.653l.323-.1c.744-.2 2.44-.6 4.043-.598 1.068 0 2.18.177 3.02.355l1.022.244.323.1v3.653c-.483-.078-2.476-.38-4.366-.38m4.488-3.432s-2.31-.716-4.488-.717-4.484.716-4.488.717l-.067.02v4.5c0 2.62 2 5 4.555 5.002v-.19c-1.222 0-2.31-.57-3.098-1.457s-1.27-2.093-1.268-3.356v-.526l1.338-.185c.843-.1 1.955-.2 3.028-.2s2.185.1 3.03.2l1.337.185v.526a5.1 5.1 0 0 1-1.268 3.356c-.787.888-1.876 1.457-3.097 1.457v.19c2.564-.003 4.553-2.382 4.554-5.002v-4.5z" fill="#fff"/></g></svg>